<svg width="1573" height="274" viewBox="0 0 1573 274" fill="none" xmlns="http://www.w3.org/2000/svg">
<path d="M461.037 219.33C437.037 219.33 418.237 213.23 404.737 201.03C391.137 188.83 384.337 171.83 384.337 149.83H429.537C429.537 160.43 432.337 168.73 438.037 174.63C443.737 180.53 451.437 183.53 461.337 183.53C469.737 183.53 476.137 181.63 480.737 177.93C485.337 174.23 487.537 168.93 487.537 162.03C487.537 156.03 485.837 151.33 482.337 147.63C478.937 144.03 472.737 140.43 463.737 136.83L428.637 123.13C402.237 113.23 389.037 95.5304 389.037 69.8304C389.037 52.5304 395.337 38.7304 407.837 28.2304C420.437 17.8304 437.237 12.6304 458.437 12.6304C480.037 12.6304 497.337 18.2304 510.337 29.5304C523.337 40.7304 529.837 55.8304 529.837 74.6304H484.737C484.737 65.5304 482.437 58.5304 477.737 53.7304C473.137 48.9304 466.437 46.5304 457.637 46.5304C450.437 46.5304 444.637 48.2304 440.537 51.7304C436.437 55.2304 434.237 59.8304 434.237 65.8304C434.137 71.1304 436.437 76.1304 440.337 79.6304C444.437 83.4304 451.337 87.3304 460.937 91.2304L493.237 104.03C519.437 114.23 532.537 132.53 532.537 158.93C532.537 177.13 525.937 191.73 512.837 202.73C499.937 213.83 482.537 219.33 461.037 219.33Z" fill="#00A2FF"/>
<path d="M627.937 75.6304C660.637 75.6304 677.037 93.9304 677.037 130.53V213.63H634.137V144.53C634.137 133.03 632.337 124.63 628.737 119.43C625.137 114.23 619.037 111.63 610.437 111.63C593.137 111.63 584.537 122.23 584.537 143.43V213.63H541.837V18.4304H584.537V98.7304C592.437 83.3304 606.937 75.6304 627.937 75.6304Z" fill="#00A2FF"/>
<path d="M750.337 217.33C730.837 217.33 715.337 210.73 704.037 197.53C692.737 184.33 687.037 167.33 687.037 146.53C687.037 126.03 692.937 109.13 704.637 95.7302C716.337 82.3302 731.737 75.6302 750.937 75.6302C759.737 75.4302 768.537 77.6302 776.337 81.7302C783.437 85.5302 789.337 91.3302 793.037 98.4302V79.2302H835.437V213.63H793.037V194.73C789.337 201.43 783.637 206.83 775.837 211.03C768.037 215.33 759.237 217.43 750.337 217.33ZM762.637 181.93C772.837 181.93 780.737 178.63 786.337 171.93C791.937 165.23 794.737 156.73 794.737 146.53C794.737 136.53 791.937 128.13 786.337 121.43C780.737 114.73 772.837 111.43 762.637 111.43C752.937 111.43 745.237 114.73 739.337 121.23C733.437 127.73 730.537 136.23 730.537 146.63C730.537 157.03 733.437 165.53 739.337 172.13C745.237 178.63 752.937 181.93 762.637 181.93Z" fill="#00A2FF"/>
<path d="M985.637 213.63H933.537L890.837 155.33V213.63H848.137V18.4304H890.837V135.23L934.637 79.1304H984.837L931.237 142.73L985.637 213.63Z" fill="#00A2FF"/>
<path d="M1109.64 139.53C1109.64 145.73 1109.24 152.03 1108.54 158.23H1009.24C1009.64 166.93 1012.64 173.73 1018.14 178.63C1023.74 183.43 1031.24 185.83 1040.74 185.93C1053.74 185.93 1062.14 181.73 1065.84 173.43H1107.64C1105.64 186.63 1098.44 197.33 1086.04 205.63C1073.64 213.93 1058.54 218.03 1040.74 218.03C1017.84 218.03 999.837 211.73 986.637 199.03C973.437 186.43 966.837 168.93 966.837 146.63C966.837 124.73 973.437 107.33 986.637 94.6303C999.837 81.9303 1017.44 75.5303 1039.34 75.5303C1060.24 75.5303 1077.14 81.4303 1090.14 93.3303C1103.04 105.13 1109.54 120.53 1109.64 139.53ZM1009.24 131.73H1067.54C1067.34 122.83 1064.84 115.93 1060.04 111.13C1055.24 106.33 1048.24 103.93 1039.14 103.93C1030.04 103.93 1022.84 106.53 1017.54 111.63C1012.24 116.73 1009.44 123.33 1009.24 131.73Z" fill="#00A2FF"/>
<path d="M1206.84 75.6302C1225.24 75.6302 1240.14 82.1302 1251.64 95.1302C1263.04 108.13 1268.84 125.23 1268.84 146.43C1268.84 167.43 1262.94 184.53 1251.24 197.63C1239.54 210.73 1224.34 217.33 1205.74 217.33C1196.64 217.43 1187.74 215.23 1179.84 210.93C1172.24 206.63 1166.64 201.23 1163.14 194.73V269.43H1120.44V79.2302H1163.14V98.4302C1166.64 91.7302 1172.44 86.2302 1180.44 81.9302C1188.44 77.7302 1197.54 75.5302 1206.84 75.6302ZM1193.44 181.93C1202.74 181.93 1210.34 178.63 1216.34 172.03C1222.34 165.43 1225.24 156.93 1225.24 146.53C1225.24 136.13 1222.24 127.63 1216.34 121.13C1210.44 114.63 1202.74 111.43 1193.44 111.33C1183.74 111.33 1175.94 114.63 1170.04 121.13C1164.14 127.63 1161.14 136.13 1161.14 146.53C1161.14 157.13 1164.14 165.73 1170.24 172.23C1176.14 178.63 1183.94 181.93 1193.44 181.93Z" fill="#00A2FF"/>
<path d="M1340.54 217.33C1321.04 217.33 1305.54 210.73 1294.24 197.53C1282.94 184.33 1277.24 167.33 1277.24 146.53C1277.24 126.03 1283.14 109.13 1294.84 95.7302C1306.54 82.3302 1321.94 75.6302 1341.14 75.6302C1349.94 75.4302 1358.74 77.6302 1366.54 81.7302C1373.64 85.5302 1379.54 91.3302 1383.24 98.4302V79.2302H1425.64V213.63H1383.24V194.73C1379.54 201.43 1373.84 206.83 1366.14 211.03C1358.24 215.33 1349.44 217.43 1340.54 217.33ZM1352.84 181.93C1363.04 181.93 1370.94 178.63 1376.54 171.93C1382.14 165.23 1384.94 156.73 1384.94 146.53C1384.94 136.53 1382.14 128.13 1376.54 121.43C1370.94 114.73 1363.04 111.43 1352.84 111.43C1343.14 111.43 1335.44 114.73 1329.54 121.23C1323.64 127.73 1320.74 136.23 1320.74 146.63C1320.74 157.03 1323.64 165.53 1329.54 172.13C1335.44 178.63 1343.14 181.93 1352.84 181.93Z" fill="#00A2FF"/>
<path d="M1529.44 79.2302H1572.14V209.53C1572.14 230.43 1565.74 246.53 1552.94 258.03C1540.84 268.43 1524.44 273.63 1503.54 273.63C1481.74 273.63 1465.24 269.03 1453.84 259.73C1442.84 250.43 1437.24 238.63 1437.14 224.33H1480.04C1480.94 236.43 1488.74 242.43 1503.44 242.43C1520.74 242.43 1529.34 232.43 1529.34 212.33V191.43C1521.54 206.23 1507.34 213.73 1486.74 213.73C1470.14 213.73 1457.74 208.73 1449.54 198.63C1441.34 188.53 1437.14 174.83 1437.14 157.43V79.2302H1479.84V150.93C1479.84 170.23 1487.74 179.93 1503.54 179.93C1511.94 179.93 1518.34 176.93 1522.74 170.83C1527.24 164.83 1529.44 156.43 1529.44 145.83V79.2302Z" fill="#00A2FF"/>
<path fill-rule="evenodd" clip-rule="evenodd" d="M165.337 172.83C164.237 172.53 163.037 172.33 161.937 172.03C153.937 170.43 145.637 170.33 137.637 171.83C136.637 172.03 135.637 172.23 134.737 172.43C128.637 173.93 127.137 177.43 129.937 183.03C133.037 189.43 138.337 194.63 144.737 197.53C147.937 199.13 151.737 199.13 154.937 197.43C161.437 194.23 166.637 188.83 169.737 182.23C172.037 177.23 170.837 174.23 165.337 172.83Z" fill="#00A2FF"/>
<path fill-rule="evenodd" clip-rule="evenodd" d="M277.137 6.13033C258.537 -13.3697 190.737 19.3303 176.237 26.6303C174.437 27.5303 172.337 28.0303 170.337 28.0303H149.337H128.137C126.037 28.0303 124.037 27.5303 122.237 26.6303C107.737 19.2303 39.9371 -13.3697 21.4371 6.13033C0.637123 28.0303 -6.06288 171.93 5.93712 185.93C12.2371 193.33 55.0371 217.53 89.2371 230.43C101.837 235.33 123.337 243.33 149.337 243.33C174.537 243.33 197.337 235.63 208.937 230.53C262.837 206.83 285.537 193.73 291.837 186.33C303.937 172.33 297.937 28.0303 277.137 6.13033ZM204.537 36.5303C214.837 29.6303 226.337 24.6303 238.437 21.7303C241.137 21.0303 243.937 20.7303 246.737 20.8303C256.837 20.8303 264.637 27.4303 267.137 37.7303C267.137 37.7303 271.637 57.7303 271.937 75.9303C272.037 81.4303 267.737 86.1303 262.137 86.2303C261.937 86.2303 261.737 86.2303 261.637 86.2303C260.137 86.2303 258.537 85.8303 257.237 85.2303L204.037 54.5303C201.137 52.8303 199.337 49.8303 199.037 46.5303C199.037 46.2303 199.037 46.0303 199.037 45.7303C198.837 41.7303 201.037 38.7303 204.537 36.5303ZM31.2371 37.6303C33.6371 27.3303 41.4371 20.7303 51.6371 20.7303C54.4371 20.6303 57.2371 20.9303 59.9371 21.6303C72.0371 24.5303 83.4371 29.5303 93.7371 36.4303C97.1371 38.6303 99.4371 41.6303 99.4371 45.6303C99.4371 45.9303 99.4371 46.1303 99.4371 46.4303C99.1371 49.7303 97.2371 52.7303 94.4371 54.4303L41.2371 85.1303C39.8371 85.8303 38.3371 86.1303 36.8371 86.1303C31.3371 86.2303 26.6371 81.9303 26.5371 76.3303C26.5371 76.1303 26.5371 75.9303 26.5371 75.8303C26.7371 57.7303 31.2371 37.7303 31.2371 37.6303ZM73.0371 143.03L50.1371 158.13C43.5371 162.53 41.3371 164.73 39.6371 167.83C38.2371 170.43 37.5371 173.43 37.6371 176.33C37.6371 179.63 36.4371 181.73 35.5371 182.73C33.3371 184.93 30.6371 185.43 27.6371 184.53C26.3371 184.23 25.1371 183.63 24.0371 182.73C13.1371 173.83 11.8371 156.23 21.2371 143.83C27.1371 136.03 31.3371 133.73 56.2371 117.23C81.1371 100.73 84.9371 97.9303 94.4371 95.5303C109.537 91.8303 125.137 99.8303 129.037 113.43C129.437 114.73 129.437 116.13 129.237 117.43C128.837 120.53 127.337 122.83 124.337 123.93C123.037 124.43 120.637 124.63 117.637 123.33C114.937 122.13 111.937 121.53 109.037 121.83C105.537 122.23 102.637 123.33 96.0371 127.73L73.0371 143.03ZM210.337 198.93C206.037 204.33 200.637 209.43 194.737 212.53C164.637 228.53 134.137 228.33 104.137 212.43C98.3371 209.33 93.0371 204.33 88.7371 199.13C80.8371 189.43 81.2371 177.43 88.4371 167.23C92.8371 161.03 98.7371 156.53 105.137 153.03C119.037 145.43 133.937 142.33 149.537 142.13C165.637 142.33 181.137 145.33 195.137 154.03C200.937 157.63 206.137 162.23 210.337 167.53C218.037 177.13 218.037 189.43 210.337 198.93ZM274.237 182.93C273.237 183.83 271.937 184.43 270.637 184.73C267.637 185.53 264.937 185.13 262.737 182.93C261.837 181.93 260.637 179.83 260.637 176.53C260.737 173.53 260.037 170.63 258.637 168.03C256.937 164.93 254.737 162.73 248.137 158.33L225.237 143.23H225.137L225.037 143.13L202.137 128.03C195.537 123.63 192.537 122.53 189.137 122.13C186.137 121.93 183.237 122.43 180.537 123.63C177.437 124.93 175.037 124.63 173.837 124.23C170.937 123.13 169.437 120.83 169.037 117.73C168.837 116.43 168.837 115.03 169.237 113.73C173.137 100.13 188.737 92.1303 203.837 95.8303C213.337 98.1303 217.137 101.03 242.037 117.53C266.937 133.93 271.137 136.23 277.037 144.13C286.337 156.53 285.137 174.03 274.237 182.93Z" fill="#00A2FF"/>
</svg>
