<?xml version="1.0" encoding="UTF-8"?>
<svg width="187px" height="26px" viewBox="0 0 187 26" version="1.1" xmlns="http://www.w3.org/2000/svg" xmlns:xlink="http://www.w3.org/1999/xlink">
    <title>SECUTIX_Logo_White_PP_rgb Copy</title>
    <g id="Slider-Hero-image-and-Nav" stroke="none" stroke-width="1" fill="none" fill-rule="evenodd">
        <g id="Mobile-Dropdown" transform="translate(-29.000000, -47.000000)" fill="#B40050" fill-rule="nonzero">
            <g id="SECUTIX_Logo_White_PP_rgb-Copy" transform="translate(29.000000, 47.000000)">
                <path d="M82.1710522,9.50625 C82.6275895,8.44529452 83.2953629,7.48825795 84.1337391,6.693375 C84.9952548,5.87784562 86.0084576,5.2390823 87.1159826,4.81325 C88.3204558,4.35602142 89.6001437,4.1289184 90.8885043,4.14375 L94.7358261,4.14375 C96.2272878,4.11678689 97.7066972,4.41513282 99.0709739,5.018 C100.312155,5.57990339 101.401394,6.42943165 102.248348,7.496125 L99.9799565,9.527375 C99.4817115,8.71483992 98.7710691,8.05355274 97.9245826,7.61475 C96.9757911,7.12641207 95.9198864,6.88286167 94.8529043,6.90625 L91.0364783,6.90625 C90.1683539,6.89457997 89.3057304,7.04560353 88.4932783,7.3515 C87.7508889,7.63682486 87.0750938,8.07156682 86.5078261,8.62875 C85.9473954,9.17677878 85.5071586,9.83530917 85.215087,10.5625 C84.6209582,12.1299079 84.6209582,13.8603421 85.215087,15.42775 C85.5059679,16.158425 85.9462713,16.8203759 86.5078261,17.37125 C87.0760462,17.9288063 87.7529815,18.3635695 88.4965304,18.6485 C89.3089825,18.9543965 90.1716061,19.10542 91.0397304,19.09375 L94.8561565,19.09375 C96.0486203,19.09375 97.0784754,18.8537917 97.9457217,18.373875 C98.7761011,17.9200289 99.4729857,17.2566662 99.9669478,16.449875 L102.28087,18.409625 C101.449272,19.5087446 100.358962,20.3856564 99.1067478,20.9625 C97.8297275,21.5605 96.3727536,21.8595 94.7358261,21.8595 L90.8885043,21.8595 C89.6001437,21.8743316 88.3204558,21.6472286 87.1159826,21.19 C86.0063106,20.763192 84.9925911,20.1202363 84.1337391,19.2985 C81.5361121,16.7445903 80.7585312,12.8663668 82.1710522,9.5095 L82.1710522,9.50625 Z M122.281739,4.30625 L125.533913,4.30625 L125.533913,14.048125 C125.533913,15.7879583 125.208696,17.2369167 124.558261,18.395 C123.946573,19.5172046 123.004942,20.4247405 121.860583,20.995 C120.712565,21.57025 119.360203,21.857875 117.803496,21.857875 L113.61307,21.857875 C112.055278,21.857875 110.700206,21.57025 109.547852,20.995 C108.398599,20.4275952 107.452542,19.5196238 106.838791,18.395 C106.188357,17.238 105.863139,15.7890417 105.863139,14.048125 L105.863139,4.30625 L108.952704,4.30625 L108.952704,14.035125 C108.952704,15.166125 109.142414,16.108625 109.521835,16.862625 C109.867852,17.5840529 110.438337,18.1741104 111.147922,18.5445 C111.875558,18.9169312 112.68343,19.1055133 113.50087,19.09375 L117.728696,19.09375 C118.528792,19.1035776 119.318826,18.9148556 120.027983,18.5445 C120.735318,18.1647064 121.309524,17.5778426 121.673583,16.862625 C122.076852,16.1042917 122.278487,15.1617917 122.278487,14.035125 L122.281739,4.30625 Z M158.706087,21.53125 L155.453913,21.53125 L155.453913,4.30625 L158.706087,4.30625 L158.706087,21.53125 Z M177.872774,12.454 L186.300783,4.30625 L182.072957,4.30625 L175.215748,10.96875 L174.044965,10.96875 L167.2154,4.30625 L162.746913,4.30625 L171.222078,12.43125 L162.143635,21.53125 L166.371461,21.53125 L173.921383,14.05625 L175.048261,14.05625 L182.573791,21.53125 L187,21.53125 L177.872774,12.454 Z M53.8023391,19.25625 C53.2286823,20.1017488 52.427709,20.7681232 51.4916696,21.178625 C50.508429,21.630375 49.3468609,21.85625 48.0069652,21.85625 L39.6309913,21.85625 C38.0807884,21.85625 36.7257159,21.6119583 35.5657739,21.123375 C34.401481,20.6298683 33.3766939,19.8574665 32.5819043,18.874375 L34.9608696,16.6985 C35.4208924,17.4345433 36.0662996,18.0369315 36.8324957,18.445375 C37.6800866,18.8919908 38.6274785,19.1156787 39.5854609,19.095375 L48.002087,19.095375 C48.6005223,19.1097668 49.1953667,18.9990691 49.7485043,18.770375 C50.210014,18.576235 50.609757,18.2599131 50.9046522,17.8555 C51.1843393,17.4667019 51.3319466,16.9985471 51.3258087,16.51975 C51.3386551,16.1465988 51.2646211,15.7755636 51.1095391,15.435875 C50.9703719,15.1533929 50.7637377,14.9095044 50.507887,14.72575 C50.2414379,14.5379063 49.9435057,14.3992211 49.6281739,14.31625 C49.2849416,14.2236496 48.9338103,14.1632627 48.5793478,14.135875 C48.2020957,14.10825 48.003713,14.100125 47.5077565,14.100125 L38.9203913,13.937625 C38.434109,13.9207016 37.9503168,13.860336 37.4748,13.75725 C36.974374,13.6353406 36.4894075,13.4570752 36.0292087,13.225875 C35.5608485,12.9926837 35.1370616,12.6791809 34.7771217,12.299625 C34.4000436,11.9036499 34.0976172,11.4428819 33.8844,10.9395 C33.6523708,10.3788088 33.5378131,9.77653849 33.5478,9.169875 C33.5348725,8.24429691 33.8005737,7.33619503 34.3104348,6.563375 C34.8439049,5.77426951 35.5920419,5.15405786 36.4666261,4.775875 C37.4918562,4.33093175 38.6013249,4.11306687 39.7188,4.13725 L48.1451826,4.13725 C49.3310904,4.11364342 50.5091081,4.3349273 51.6054957,4.78725 C52.6154624,5.23336047 53.5127557,5.89963428 54.2316261,6.73725 L52.0591739,8.68725 C51.6842499,8.07321172 51.1475934,7.5740163 50.507887,7.24425 C49.7658221,6.88161644 48.9464387,6.70535482 48.1207913,6.73075 L39.7334348,6.73075 C39.186875,6.71777728 38.6434444,6.81676816 38.1366174,7.021625 C37.7217725,7.18594814 37.3644022,7.4684888 37.1089304,7.834125 C36.8703398,8.19573406 36.7478085,8.62147238 36.7576957,9.0545 C36.7497315,9.37561183 36.8159474,9.69423637 36.9512,9.985625 C37.080841,10.2517639 37.2817899,10.4767662 37.531713,10.635625 C37.7919799,10.8056351 38.0780807,10.9324011 38.3789043,11.011 C38.7104343,11.1007797 39.0517791,11.1493547 39.3952087,11.155625 C40.3302087,11.155625 48.714313,11.292125 49.1224609,11.30025 C49.6206335,11.3180275 50.1152878,11.3910588 50.5973217,11.518 C51.115597,11.648454 51.6154541,11.8433499 52.0851913,12.098125 C52.5608594,12.3546707 52.9936956,12.6836037 53.3681739,13.073125 C53.7601863,13.4880722 54.0722002,13.9717561 54.2885391,14.499875 C54.5315472,15.1076914 54.6498828,15.7581022 54.6365217,16.4125 C54.6540042,17.4228563 54.3636422,18.4146412 53.8039652,19.25625 L53.8023391,19.25625 Z M138.890591,21.53125 L142.142765,21.53125 L142.142765,4.30625 L138.890591,4.30625 L138.890591,21.53125 Z M129.273913,7.06875 L136.134374,7.06875 L137.358817,4.30625 L129.273913,4.30625 L129.273913,7.06875 Z M143.677791,4.30625 L144.902235,7.06875 L151.713913,7.06875 L151.713913,4.30625 L143.677791,4.30625 Z M58.213913,4.30625 L78.0521739,4.30625 L78.0521739,6.90625 L61.6286957,6.90625 L61.6286957,11.13125 L77.5643478,11.13125 L77.5643478,13.73125 L61.6286957,13.73125 L61.6286957,18.93125 L78.0521739,18.93125 L78.0521739,21.53125 L58.213913,21.53125 L58.213913,4.30625 Z M0.624417391,8.36875 L0,25.553125 L28.1556957,26 L27.1800435,0 L3.74,1.33575 L0.624417391,8.36875 Z" id="Shape"></path>
            </g>
        </g>
    </g>
</svg>